# xmcd
#
# Track frame offsets: 
#        150
#        21042
#        43433
#        60189
#        81393
#        98348
#        117548
#        134556
#        153627
#        168209
#        185522
#        206775
#
# Disc length: 3005 seconds
#
# Revision: 0
# Processed by: cddbd v1.5.2PL0 Copyright (c) Steve Scherf et al.
# Submitted via: ExactAudioCopy v0.95b4
#
DISCID=a40bbb0c
DTITLE=Pure Velour - Adulterated
DYEAR=2003
DGENRE=JazzFunk
TTITLE0=Ladies and Escorts
TTITLE1=Eu Vi Voce
TTITLE2=Thoroughbred
TTITLE3=Triptique
TTITLE4=Nuit des Morts
TTITLE5=Apropos What?
TTITLE6=El Paso Doble
TTITLE7=Sugarpush
TTITLE8=Catching On
TTITLE9=Kitchen Party
TTITLE10=i Zimba
TTITLE11=Up'n'Atter
EXTD=
EXTT0=
EXTT1=
EXTT2=
EXTT3=
EXTT4=
EXTT5=
EXTT6=
EXTT7=
EXTT8=
EXTT9=
EXTT10=
EXTT11=
PLAYORDER=
